<?xml version="1.0" encoding="UTF-8" standalone="no"?>
<svg
   version="1.1"
   width="512"
   height="512"
   id="svg9"
   sodipodi:docname="Icon.svg"
   inkscape:version="1.4 (86a8ad7, 2024-10-11)"
   inkscape:export-filename="icon.svg"
   inkscape:export-xdpi="1194.2858"
   inkscape:export-ydpi="1194.2858"
   xmlns:inkscape="http://www.inkscape.org/namespaces/inkscape"
   xmlns:sodipodi="http://sodipodi.sourceforge.net/DTD/sodipodi-0.dtd"
   xmlns="http://www.w3.org/2000/svg"
   xmlns:svg="http://www.w3.org/2000/svg">
  <defs
     id="defs9" />
  <sodipodi:namedview
     id="namedview9"
     pagecolor="#ffffff"
     bordercolor="#000000"
     borderopacity="0.25"
     inkscape:showpageshadow="2"
     inkscape:pageopacity="0.0"
     inkscape:pagecheckerboard="0"
     inkscape:deskcolor="#d1d1d1"
     inkscape:zoom="5.6014493"
     inkscape:cx="257.25485"
     inkscape:cy="245.2044"
     inkscape:window-width="1920"
     inkscape:window-height="991"
     inkscape:window-x="-9"
     inkscape:window-y="-9"
     inkscape:window-maximized="1"
     inkscape:current-layer="svg9">
    <inkscape:page
       x="0"
       y="0"
       width="512"
       height="512"
       id="page1"
       margin="0"
       bleed="0" />
  </sodipodi:namedview>
  <path
     d="m 410.18626,4.0701201 c 28.39985,6.0966299 54.45341,14.6045699 70.59628,30.4937599 10.40791,15.70738 8.48846,32.14381 5.3977,48.74676 -14.95394,20.49107 -40.48223,30.95666 -72.72695,40.60068 -12.05906,2.57132 -24.17135,5.05496 -36.36348,7.38194 4.89842,1.34172 9.79683,2.68345 14.84369,4.06583 45.66245,13.08265 74.71602,22.25627 96.14067,50.83735 11.52947,31.91632 1.87021,55.17132 -26.13625,82.35478 -35.60089,23.89512 -94.77105,32.33078 -145.4539,36.21765 -31.79239,0.4909 -63.53149,-0.33557 -95.28843,-1.26156 -53.77821,-0.78363 -90.46159,7.07916 -132.717215,27.32904 -32.05522,20.82351 -55.09078,36.35122 -56.8416,66.20678 8.15526,10.87936 12.63962,16.76723 30.3029,22.14583 55.017575,4.3704 103.799415,-14.79046 151.171195,-29.75934 57.69787,-18.1492 122.1794,-38.18733 188.22126,-25.60522 50.11382,13.47153 81.00889,32.23343 105.30257,61.82376 9.67279,30.63243 7.06466,57.49993 -14.39388,85.81506 -5.99997,-1.21802 -11.99995,-2.43604 -18.18174,-3.69097 0.14063,-2.22669 0.28125,-4.45338 0.42614,-6.74757 0.10937,-2.94986 0.21875,-5.89976 0.33144,-8.93905 0.14062,-2.91185 0.28124,-5.82365 0.42613,-8.82375 -1.32053,-9.71493 -4.5281,-15.34831 -13.30487,-23.47225 -32.72468,-9.54968 -52.3048,-6.65441 -85.97855,-0.1325 -30.22507,6.77739 -58.74885,15.5632 -87.50555,24.35446 -62.71531,19.17219 -123.30939,36.64846 -193.938535,23.29925 -50.35663,-17.03767 -75.07706,-36.5897 -93.1814093,-69.66703 -6.33935,-38.03785 9.9330493,-69.46967 48.4846393,-99.6562 25.43361,-17.61919 50.542005,-29.94106 84.848095,-40.60068 -3.9531,-1.03246 -7.90621,-2.06492 -11.97911,-3.12867 C 78.298515,281.85795 44.039715,266.77342 25.576195,238.3314 21.595105,213.96012 18.589315,188.47549 43.757935,168.20296 103.95023,128.96214 183.29717,124.26508 266.863,122.29652 365.41418,121.01328 365.41418,121.01328 449.81677,94.38356 464.3238,81.8436 469.53979,72.34712 467.9985,57.24317 463.4871,41.6242 452.33601,33.99701 431.63503,24.25511 c -26.50867,-8.2039 -51.54947,-8.92775 -80.68147,-9.68879 -6.73239,-0.21411 -6.73239,-0.21411 -13.60079,-0.43254 -10.99433,-0.34558 -21.99191,-0.65249 -32.98992,-0.95158 0,-2.43604 0,-4.8720799 0,-7.3819399 29.49197,-8.98049 74.29914,-5.87461997 105.82341,-1.73014 z M 213.45415,142.36617 c -7.8348,6.47006 -7.8348,6.47006 -13.25752,14.07182 -1.96093,2.45983 -3.92186,4.91966 -5.94221,7.45403 -20.48817,32.51195 -16.81758,71.34093 1.4678,103.8518 9.52284,12.72471 21.73041,19.78776 41.97425,25.95214 25.61579,1.76608 37.93467,1.98843 59.09065,-7.38194 28.31756,-22.99433 35.07727,-45.60137 34.46956,-73.58873 -0.0371,-2.90974 -0.0742,-5.81949 -0.11245,-8.81741 -1.1456,-25.95111 -9.20906,-45.67288 -37.76619,-65.46337 -27.70923,-7.23226 -54.75266,-5.81935 -79.92389,3.92166 z"
     fill="#2c5271"
     id="path1"
     style="stroke-width:4.72962" />
</svg>
