<?xml version="1.0" encoding="UTF-8" standalone="no"?>
<svg
   version="1.1"
   width="784"
   height="291"
   id="svg40"
   sodipodi:docname="logo.svg"
   inkscape:version="1.4 (86a8ad7, 2024-10-11)"
   xmlns:inkscape="http://www.inkscape.org/namespaces/inkscape"
   xmlns:sodipodi="http://sodipodi.sourceforge.net/DTD/sodipodi-0.dtd"
   xmlns="http://www.w3.org/2000/svg"
   xmlns:svg="http://www.w3.org/2000/svg">
  <defs
     id="defs40" />
  <sodipodi:namedview
     id="namedview40"
     pagecolor="#ffffff"
     bordercolor="#000000"
     borderopacity="0.25"
     inkscape:showpageshadow="2"
     inkscape:pageopacity="0.0"
     inkscape:pagecheckerboard="0"
     inkscape:deskcolor="#d1d1d1"
     inkscape:zoom="2.2538265"
     inkscape:cx="427.71704"
     inkscape:cy="145.75212"
     inkscape:window-width="1920"
     inkscape:window-height="991"
     inkscape:window-x="-9"
     inkscape:window-y="-9"
     inkscape:window-maximized="1"
     inkscape:current-layer="svg40" />
  <path
     d="M0 0 C0.99 0.66 1.98 1.32 3 2 C2.54177532 5.46941546 2.10868317 8.67395049 1 12 C1.74443359 12.4021875 1.74443359 12.4021875 2.50390625 12.8125 C13.33936679 19.06293644 17.73231191 27.02297794 21 39 C22.45699523 47.36861637 22.4860997 55.64068919 21 64 C22.010625 63.79375 23.02125 63.5875 24.0625 63.375 C34.9947925 62.07630568 46.21687527 64.23930531 55 71 C61.29351465 77.15468712 65.03131687 84.62959918 65.34057617 93.51000977 C65.34011096 95.07055588 65.32375372 96.63116374 65.29296875 98.19140625 C65.28872391 99.02212143 65.28447906 99.85283661 65.28010559 100.70872498 C65.26349314 103.32699882 65.2258763 105.94446415 65.1875 108.5625 C65.17243053 110.35220232 65.15874612 112.14191687 65.14648438 113.93164062 C65.1136472 118.28806554 65.06198936 122.64389635 65 127 C67.64 126.67 70.28 126.34 73 126 C73 95.64 73 65.28 73 34 C85.6111607 36.10186012 91.84804745 38.9919872 99 49 C102.52818952 55.88837001 102.26466903 63.807164 102.5625 71.375 C102.60568359 72.39722656 102.64886719 73.41945313 102.69335938 74.47265625 C102.79887792 76.98165288 102.90099213 79.49073943 103 82 C103.35795654 81.29367432 103.71591309 80.58734863 104.0847168 79.85961914 C107.68339566 72.92986421 111.81614333 69.08530136 119 66 C127.38543034 63.90364241 134.99447647 64.84981204 143 68 C143.99 68.66 144.98 69.32 146 70 C148.16112199 70.19905071 150.33062762 70.31260655 152.5 70.375 C164.71633493 71.15423124 172.75709866 74.84122073 181 84 C191.77961688 97.65838396 195.69636995 114.86156172 195 132 C194.34 132.33 193.68 132.66 193 133 C192.76216797 131.07800781 192.76216797 131.07800781 192.51953125 129.1171875 C190.58344255 114.40177196 187.57610399 101.43879963 179 89 C178.41798828 88.12408203 178.41798828 88.12408203 177.82421875 87.23046875 C173.07963137 80.79022128 164.62450905 76.88107063 156.85546875 75.6640625 C154.90742516 75.41160151 152.95390749 75.20212836 151 75 C151.27714844 75.60328125 151.55429687 76.2065625 151.83984375 76.828125 C152.20207031 77.62734375 152.56429687 78.4265625 152.9375 79.25 C153.29714844 80.03890625 153.65679688 80.8278125 154.02734375 81.640625 C155.77526003 85.88055044 156.12301239 89.46200355 156.11352539 94.05371094 C156.11344986 95.27467468 156.11337433 96.49563843 156.11329651 97.75360107 C156.10555458 99.72408417 156.10555458 99.72408417 156.09765625 101.734375 C156.09579021 103.0962926 156.09436718 104.45821088 156.09336853 105.82012939 C156.08955803 109.39741889 156.07974032 112.97466752 156.06866455 116.55194092 C156.05841884 120.20519457 156.05386415 123.85845486 156.04882812 127.51171875 C156.03811669 134.67449776 156.02105794 141.83724314 156 149 C154.39440408 148.86202241 152.78935724 148.71764508 151.18457031 148.57055664 C150.29070618 148.49084122 149.39684204 148.41112579 148.47589111 148.32899475 C142.01278042 147.47018094 136.61501036 143.18305583 132.5625 138.25 C125.72494672 127.5695091 126.63754728 116.07987778 126.8125 103.875 C126.8275724 102.04167765 126.84125629 100.20834332 126.85351562 98.375 C126.88632277 93.91636744 126.93796404 89.45831776 127 85 C120.59162211 90.54844559 120.59162211 90.54844559 114.4375 96.375 C113.75558594 97.04273438 113.07367187 97.71046875 112.37109375 98.3984375 C111.58863281 99.25695312 110.80617188 100.11546875 110 101 C109.10776733 101.78636841 109.10776733 101.78636841 108.19750977 102.58862305 C100.68078632 110.22409713 101.99696966 120.05790234 102.0625 130.0625 C102.0493755 131.90041583 102.03312791 133.73831216 102.01367188 135.57617188 C101.97304285 140.05136713 101.97488828 144.52471046 102 149 C92.60614387 149.11016176 86.62626378 146.24180911 79.73046875 139.8828125 C77.21138157 137.14195466 75.63426721 134.33662888 74 131 C71.03 131.33 68.06 131.66 65 132 C65 137.61 65 143.22 65 149 C56.35484354 148.45967772 50.28981385 146.76353521 44.25 140.3125 C40.90564652 136.24876613 38.82944128 131.90881139 37 127 C36.69707031 127.66386719 36.39414062 128.32773438 36.08203125 129.01171875 C33.62830626 134.18341604 31.4307883 138.23382994 27 142 C26.278125 142.70125 25.55625 143.4025 24.8125 144.125 C16.84184937 149.43876709 6.91743402 150.37205303 -2.36328125 148.53125 C-8.38180438 146.62708449 -11.28104077 143.11049765 -14.3125 137.625 C-16.05020113 130.99014114 -15.26179494 125.97995739 -12 120 C-7.17034905 111.9144046 2.16986808 107.76860378 10.91015625 105.1171875 C12.92362545 104.66407716 14.96058353 104.31646118 17 104 C16.68417969 103.14277344 16.36835938 102.28554687 16.04296875 101.40234375 C12.8543859 91.00063714 14.02721992 79.68561509 15 69 C5.95964843 72.14218045 1.07613072 75.91579182 -4 84 C-5.485 83.505 -5.485 83.505 -7 83 C-3.33889379 75.35943052 2.39841302 69.10434688 10.4375 66 C14 65 14 65 16 65 C17.07388551 42.1267977 17.07388551 42.1267977 7.953125 21.68359375 C4.98833561 19.1279453 1.53728935 17.63084878 -2 16 C-11.0117467 32.3268846 -20.01935148 48.65598077 -29 65 C-24.05 65 -19.1 65 -14 65 C-20.20276137 77.78528363 -27.01798893 90.17912549 -33.9627533 102.57402039 C-37.37509636 108.66437206 -40.76423852 114.76752722 -44.15182495 120.87167358 C-45.68630356 123.63627579 -47.22211126 126.40013932 -48.7578125 129.1640625 C-49.2645752 130.07623535 -49.77133789 130.9884082 -50.29345703 131.92822266 C-52.52897135 135.95214844 -54.76448568 139.97607422 -57 144 C-43.14 144.33 -29.28 144.66 -15 145 C-15 145.99 -15 146.98 -15 148 C-39.42 148 -63.84 148 -89 148 C-87.59145276 144.47863191 -86.20714513 141.37149141 -84.41796875 138.0703125 C-83.90508301 137.12244873 -83.39219727 136.17458496 -82.86376953 135.19799805 C-82.31060059 134.18390869 -81.75743164 133.16981934 -81.1875 132.125 C-80.6085498 131.05999268 -80.02959961 129.99498535 -79.43310547 128.89770508 C-75.04793893 120.85783749 -70.57143269 112.87247399 -66.046875 104.91040039 C-59.2754208 92.98964877 -52.64749635 80.99034389 -46 69 C-65.8 68.505 -65.8 68.505 -86 68 C-86 67.01 -86 66.02 -86 65 C-60.755 64.505 -60.755 64.505 -35 64 C-26.75 47.5 -18.5 31 -10 14 C-19.16221984 10.94592672 -29.01991467 13.58651713 -38.14428711 15.66479492 C-38.97323486 15.84888916 -39.80218262 16.0329834 -40.65625 16.22265625 C-41.39681641 16.39547119 -42.13738281 16.56828613 -42.90039062 16.74633789 C-45.20476519 17.02473849 -46.80235175 16.69747396 -49 16 C-35.8831178 10.72647797 -23.12184743 8.03882714 -9 9 C-8.01 9.495 -8.01 9.495 -7 10 C-6.773125 9.0925 -6.54625 8.185 -6.3125 7.25 C-4.81872023 3.55111676 -3.24599423 2.22094342 0 0 Z M-1 4 C-2.62831762 5.80961577 -2.62831762 5.80961577 -4 8 C-3.67 8.99 -3.34 9.98 -3 11 C-1.39092892 8.62387135 -1.39092892 8.62387135 0 6 C-0.33 5.34 -0.66 4.68 -1 4 Z M-7 14 C-6.67 14.99 -6.34 15.98 -6 17 C-5.67 16.01 -5.34 15.02 -5 14 C-5.66 14 -6.32 14 -7 14 Z M-35 66 C-40.4868013 76.30709312 -45.8995995 86.65181152 -51.1875 97.0625 C-51.92770386 98.49843506 -51.92770386 98.49843506 -52.68286133 99.96337891 C-53.3561145 101.29828369 -53.3561145 101.29828369 -54.04296875 102.66015625 C-54.44539795 103.45043213 -54.84782715 104.24070801 -55.26245117 105.05493164 C-55.50584229 105.6968042 -55.7492334 106.33867676 -56 107 C-55.67 107.66 -55.34 108.32 -55 109 C-51.24306325 102.37084166 -47.49279566 95.737952 -43.74951172 89.10107422 C-42.63499428 87.12555084 -41.5195357 85.15055792 -40.40283203 83.17626953 C-38.99338638 80.68242213 -37.58955439 78.18550825 -36.1875 75.6875 C-35.76162598 74.9361377 -35.33575195 74.18477539 -34.89697266 73.41064453 C-32.75130163 69.91976623 -32.75130163 69.91976623 -32 66 C-32.99 66 -33.98 66 -35 66 Z M20 68 C17.68196226 85.8651788 17.68196226 85.8651788 22 103 C26.95 102.34 31.9 101.68 37 101 C37.81184129 85.61276213 37.81184129 85.61276213 31.625 72 C27.59459423 68.92921465 25.0834653 68 20 68 Z M109 78 C103.78749921 85.19958673 101.54579399 93.14298273 102 102 C105.5031089 99.26586622 108.50194239 96.51983129 111.375 93.125 C115.68435744 88.06868727 120.46945876 83.68702749 126 80 C124.84826645 77.53199953 123.95216435 75.95216435 122 74 C116.31911826 73.34451365 113.26905497 74.19497274 109 78 Z M29.875 105 C28.96492187 105.37125 28.05484375 105.7425 27.1171875 106.125 C26.06917969 106.558125 26.06917969 106.558125 25 107 C26.28000297 110.7056086 27.69184837 113.08169153 30.5 115.8125 C31.1084375 116.41707031 31.716875 117.02164063 32.34375 117.64453125 C33.90125852 119.21111239 33.90125852 119.21111239 36 119 C36.33 113.72 36.66 108.44 37 103 C34.29816945 103 32.37010212 103.97636836 29.875 105 Z M-57 109 C-56 111 -56 111 -56 111 Z M-58 111 C-57 113 -57 113 -57 113 Z M19 111 C14.36692103 117.17743863 13.21338781 122.39156139 14 130 C15.7119187 133.76398568 15.7119187 133.76398568 19 136 C22.22082643 136.37163382 24.82341431 136.66699869 27.72265625 135.0234375 C30.54844215 132.7600316 32.97795244 130.52038602 34 127 C33.55566483 123.26145584 32.06370957 121.87307281 29.1875 119.5625 C26.02228044 116.9351979 23.54995598 114.23648259 21 111 C20.34 111 19.68 111 19 111 Z M-59 113 C-58 115 -58 115 -58 115 Z M-60 115 C-59 117 -59 117 -59 117 Z "
     fill="#F8F9FA"
     transform="translate(494,44)"
     id="path1" />
  <path
     d="M0 0 C7.81852521 0.46073452 14.20797018 2.68124888 20 8 C25.14218434 14.26772684 28.18157041 20.21855954 28.4140625 28.39453125 C28.45273438 29.59658203 28.49140625 30.79863281 28.53125 32.03710938 C28.5621875 33.28298828 28.593125 34.52886719 28.625 35.8125 C28.66367188 37.07771484 28.70234375 38.34292969 28.7421875 39.64648438 C28.83630657 42.76417851 28.92194361 45.88186914 29 49 C29.24596924 48.46673096 29.49193848 47.93346191 29.74536133 47.3840332 C33.23698523 40.06868578 37.60565675 35.0052247 45.375 32.0625 C54.62984079 29.52692718 62.38594476 30.993138 71 35 C76.38982125 38.16359073 79.67719938 43.84211874 81.55638123 49.74884033 C82.12125229 52.61529918 82.11937051 55.31474436 82.11352539 58.23730469 C82.11341209 60.12881256 82.11341209 60.12881256 82.11329651 62.05853271 C82.10819028 63.42964721 82.1029743 64.80076131 82.09765625 66.171875 C82.09579028 67.57863311 82.09436722 68.98539188 82.09336853 70.39215088 C82.08955744 74.08780727 82.0797392 77.78342413 82.06866455 81.47906494 C82.05842014 85.25296494 82.05386442 89.02687135 82.04882812 92.80078125 C82.03811564 100.20053882 82.02105616 107.60026386 82 115 C80.58525876 114.874624 79.17133779 114.73997554 77.7578125 114.6015625 C76.97035645 114.52760254 76.18290039 114.45364258 75.37158203 114.37744141 C68.91985941 113.35063853 64.24753922 109.68635435 59.640625 105.26953125 C54.93330016 98.75773189 53.41215024 92.4232659 53.4609375 84.50390625 C53.44914459 83.63031967 53.43735168 82.75673309 53.42520142 81.85667419 C53.39022933 79.09176482 53.3808055 76.32761145 53.375 73.5625 C53.35854201 70.80118811 53.33625343 68.04020406 53.30337524 65.27903748 C53.28407457 63.57051494 53.27437359 61.86184378 53.27645874 60.1532135 C53.22588726 54.404568 52.92562593 48.46094014 51 43 C47.27420911 40.51613941 45.41288598 40.6195788 41 41 C37.1630524 42.42770143 36.07400992 43.88245484 33.875 47.375 C27.75215007 61.23408081 28.45769265 75.96837986 28.3125 90.8125 C28.27927425 93.16212782 28.24477987 95.51173805 28.20898438 97.86132812 C28.12468516 103.57409816 28.05608785 109.28688695 28 115 C26.39440408 114.86202241 24.78935724 114.71764508 23.18457031 114.57055664 C22.29070618 114.49084122 21.39684204 114.41112579 20.47589111 114.32899475 C13.84920691 113.4484454 8.51366032 109.08122002 4.5 103.9375 C-0.55269008 96.436746 -1.15172243 89.07777714 -1.12939453 80.2565918 C-1.13114685 79.39900772 -1.13289917 78.54142365 -1.13470459 77.65785217 C-1.13908735 74.83828681 -1.13619904 72.01878469 -1.1328125 69.19921875 C-1.13348626 67.23720793 -1.13445688 65.27519718 -1.13571167 63.31318665 C-1.13718353 59.2103292 -1.13504936 55.10749358 -1.13037109 51.00463867 C-1.12465527 45.73393628 -1.12796772 40.4632846 -1.13394356 35.19258404 C-1.13754695 31.14613966 -1.13641194 27.09970744 -1.13381577 23.05326271 C-1.13314685 21.10870165 -1.13397368 19.16413949 -1.13629532 17.2195797 C-1.13882023 14.51183494 -1.13498442 11.80417402 -1.12939453 9.09643555 C-1.13141876 8.2865921 -1.13344299 7.47674866 -1.13552856 6.6423645 C-1.1142665 1.1142665 -1.1142665 1.1142665 0 0 Z "
     fill="#F6F7F9"
     transform="translate(176,78)"
     id="path2" />
  <path
     d="M0 0 C4.68599693 1.65176903 8.98485179 3.95683902 11.6484375 8.26171875 C13.36575084 12.51734171 13.04903992 16.97048762 12.5390625 21.46875 C10.07165074 27.02042647 5.85946498 29.8558833 0.5390625 32.46875 C-1.45069123 33.16540238 -3.4492276 33.8382996 -5.4609375 34.46875 C-4.65269531 34.83226562 -3.84445313 35.19578125 -3.01171875 35.5703125 C4.5226191 39.11481402 9.31647948 41.60023481 12.8515625 49.34375 C14.75393215 57.99088476 13.16014861 64.29139401 8.5390625 71.65625 C2.66488833 78.13018971 -7.09822976 80.41567368 -15.4609375 81.46875 C-20.70670184 81.60174967 -25.94367638 81.37783402 -31.18359375 81.12695312 C-40.05703807 80.91464372 -46.10982146 83.04492098 -53.08203125 88.53125 C-58.37116644 94.1729942 -62.17205138 98.37993854 -62.4609375 106.46875 C-61.11531351 109.41630732 -60.37539206 111.01152272 -57.4609375 112.46875 C-48.38299467 113.6528295 -40.33395727 108.46155032 -32.51757812 104.40600586 C-22.9973886 99.48882345 -12.3578929 94.05986061 -1.4609375 97.46875 C6.8078794 101.1186083 11.90558794 106.20180089 15.9140625 114.21875 C17.51008063 122.51804429 17.07973736 129.79728781 13.5390625 137.46875 C12.5490625 137.13875 11.5590625 136.80875 10.5390625 136.46875 C10.56226563 135.86546875 10.58546875 135.2621875 10.609375 134.640625 C10.62742187 133.84140625 10.64546875 133.0421875 10.6640625 132.21875 C10.68726563 131.42984375 10.71046875 130.6409375 10.734375 129.828125 C10.51648723 127.19604073 9.98723519 125.66978068 8.5390625 123.46875 C3.13946647 120.88144357 -0.09126877 121.66586182 -5.64746094 123.43286133 C-10.63461901 125.26907373 -15.34106414 127.64942373 -20.0859375 130.03125 C-30.43400942 135.22560285 -40.43207553 139.96046578 -52.0859375 136.34375 C-60.39481919 131.72770462 -64.47370775 126.43043925 -67.4609375 117.46875 C-68.50693555 107.16309709 -65.82197818 98.64723087 -59.4609375 90.46875 C-55.26437288 85.69515774 -51.12146825 82.35677589 -45.4609375 79.46875 C-46.11320312 79.18902344 -46.76546875 78.90929687 -47.4375 78.62109375 C-54.76171612 75.26146069 -60.41444365 71.17458739 -63.4609375 63.46875 C-64.11781972 56.86580402 -64.61377718 49.96121538 -60.4609375 44.46875 C-50.5291637 33.83717642 -37.43686127 32.56459649 -23.6484375 32.03125 C-7.38742498 31.68358025 -7.38742498 31.68358025 6.5390625 24.46875 C8.93273314 21.071282 9.79337601 18.49838561 9.5390625 14.40625 C8.79467691 10.17457973 6.95473916 8.10813651 3.5390625 5.46875 C-0.83488637 3.24605366 -4.96663715 3.04993983 -9.7734375 2.84375 C-10.88428711 2.78574219 -10.88428711 2.78574219 -12.01757812 2.7265625 C-13.83165059 2.63293295 -15.64625866 2.54978149 -17.4609375 2.46875 C-17.4609375 1.80875 -17.4609375 1.14875 -17.4609375 0.46875 C-12.59474217 -1.96434767 -5.20152787 -1.12286951 0 0 Z M-32.4609375 37.46875 C-33.75368493 39.22169368 -33.75368493 39.22169368 -34.6484375 41.28125 C-34.97199219 41.94769531 -35.29554687 42.61414063 -35.62890625 43.30078125 C-39.0094686 52.10928877 -38.40381899 62.62928318 -35.38671875 71.4375 C-33.81544364 74.88502345 -31.80118578 76.79862586 -28.4609375 78.46875 C-24.2343132 78.94723577 -22.20168929 79.00747857 -18.7109375 76.46875 C-14.03852196 70.23886261 -12.92316565 64.11390458 -13.0234375 56.53125 C-13.02956055 55.74290771 -13.03568359 54.95456543 -13.04199219 54.14233398 C-13.23101632 47.11136333 -14.56149341 41.76811741 -19.2734375 36.40625 C-23.84548062 34.44680295 -28.30766637 34.82960419 -32.4609375 37.46875 Z "
     fill="#F2F4F5"
     transform="translate(154.4609375,76.53125)"
     id="path3" />
  <path
     d="M0 0 C9.76946926 10.24645962 9.88012756 21.14422243 9.8203125 34.66796875 C9.81889755 35.87884659 9.8174826 37.08972443 9.81602478 38.33729553 C9.81044651 42.18843094 9.79789795 46.03950729 9.78515625 49.890625 C9.78013844 52.5084627 9.77557603 55.12630131 9.77148438 57.74414062 C9.76048419 64.14715542 9.74376769 70.55013599 9.72265625 76.953125 C8.11707687 76.81419646 6.51202701 76.66913878 4.90722656 76.52148438 C4.01336243 76.44136108 3.11949829 76.36123779 2.19854736 76.27868652 C-3.63786935 75.51124053 -8.40844728 72.15023675 -12.16796875 67.73046875 C-14.7603248 63.96148507 -16.65365583 60.23033994 -18.27734375 55.953125 C-19.38552771 57.61540094 -20.47844534 59.28936173 -21.50390625 61.00390625 C-26.24603177 68.67343328 -31.92515113 73.93862904 -40.72265625 76.48046875 C-48.20506957 77.86482962 -55.91275606 78.20779636 -62.625 74.234375 C-65.91109535 71.68629161 -68.40843514 68.69094222 -70.27734375 64.953125 C-70.78311534 58.45590529 -71.1739555 52.46212782 -67.27734375 46.953125 C-56.47022161 34.64501367 -40.91823174 31.04424372 -25.27734375 28.953125 C-23.2778014 28.910342 -21.27648458 28.89450822 -19.27734375 28.953125 C-19.36508275 25.95184605 -19.47206087 22.95325504 -19.58984375 19.953125 C-19.62368164 18.69435547 -19.62368164 18.69435547 -19.65820312 17.41015625 C-19.94536854 10.67482206 -20.74995102 4.48051773 -25.71484375 -0.484375 C-31.16814794 -3.80956048 -36.89508976 -3.84326388 -43.03125 -2.3984375 C-50.48021206 -0.02693121 -54.8224899 3.22649114 -58.4296875 10.171875 C-58.70941406 10.7596875 -58.98914063 11.3475 -59.27734375 11.953125 C-60.26734375 11.953125 -61.25734375 11.953125 -62.27734375 11.953125 C-61.42405737 6.02124258 -58.70465023 2.85373468 -54.27734375 -1.046875 C-38.99009944 -11.33636636 -14.37544659 -12.92064153 0 0 Z M-36.91015625 39.390625 C-40.79721499 43.83297784 -42.49160862 49.10031083 -42.27734375 54.953125 C-41.30862556 58.51438397 -39.91510816 61.31536059 -37.27734375 63.953125 C-33.67001061 64.29343945 -30.99814166 64.22132887 -27.58984375 62.953125 C-22.15230954 58.25039271 -20.09744306 50.91345501 -19.27734375 43.953125 C-19.13040517 39.61353901 -19.15660536 35.29299947 -19.27734375 30.953125 C-25.50771446 30.953125 -32.55681331 35.22474659 -36.91015625 39.390625 Z "
     fill="#F4F6F7"
     transform="translate(332.27734375,116.046875)"
     id="path4" />
  <path
     d="M0 0 C0 0.99 0 1.98 0 3 C-0.97839844 3.25523438 -0.97839844 3.25523438 -1.9765625 3.515625 C-9.59551706 5.62825547 -15.53389878 8.15197813 -20 15 C-27.25884323 29.49099953 -26.3982516 45.46028088 -26.625 61.25 C-26.6632483 63.45964966 -26.70230383 65.6692855 -26.7421875 67.87890625 C-26.83744027 73.25248011 -26.92269697 78.6261395 -27 84 C-28.44428525 84.01893694 -29.8886421 84.03246722 -31.33300781 84.04370117 C-32.53947968 84.05586922 -32.53947968 84.05586922 -33.77032471 84.06828308 C-39.26141062 83.90012036 -43.71871724 81.08197211 -47.8125 77.625 C-56.04446717 67.74663939 -56.30108884 58.95787317 -56.1953125 46.43359375 C-56.1924826 45.15895767 -56.18965271 43.88432159 -56.18673706 42.57106018 C-56.1774899 39.2123946 -56.15957871 35.8540104 -56.1373291 32.49542236 C-56.11672468 29.05621752 -56.10770441 25.61698339 -56.09765625 22.17773438 C-56.07568358 15.45174639 -56.04227195 8.72588941 -56 2 C-54.43121148 1.95909978 -52.86210718 1.93022592 -51.29296875 1.90625 C-50.41922607 1.88884766 -49.5454834 1.87144531 -48.64526367 1.85351562 C-42.18322665 2.21135801 -37.44847547 5.14459671 -33.125 9.8125 C-30.27082046 13.34214662 -28.51093274 16.73383697 -27 21 C-26.74347656 20.3709375 -26.48695313 19.741875 -26.22265625 19.09375 C-22.7734722 11.3824429 -18.25759554 5.25977695 -10.30078125 1.83984375 C-6.76073113 0.72873313 -3.71881909 0 0 0 Z "
     fill="#F4F6F7"
     transform="translate(405,109)"
     id="path7"
     inkscape:label="path5" />
</svg>
