<?xml version="1.0" encoding="UTF-8" standalone="no"?>
<svg
   version="1.1"
   width="287"
   height="234"
   id="svg41"
   sodipodi:docname="PlaceHolder.svg"
   inkscape:version="1.4 (86a8ad7, 2024-10-11)"
   xmlns:inkscape="http://www.inkscape.org/namespaces/inkscape"
   xmlns:sodipodi="http://sodipodi.sourceforge.net/DTD/sodipodi-0.dtd"
   xmlns="http://www.w3.org/2000/svg"
   xmlns:svg="http://www.w3.org/2000/svg">
  <defs
     id="defs41" />
  <sodipodi:namedview
     id="namedview41"
     pagecolor="#ffffff"
     bordercolor="#000000"
     borderopacity="0.25"
     inkscape:showpageshadow="2"
     inkscape:pageopacity="0.0"
     inkscape:pagecheckerboard="0"
     inkscape:deskcolor="#d1d1d1"
     inkscape:zoom="3.3034188"
     inkscape:cx="143.48771"
     inkscape:cy="117"
     inkscape:window-width="1920"
     inkscape:window-height="991"
     inkscape:window-x="-9"
     inkscape:window-y="-9"
     inkscape:window-maximized="1"
     inkscape:current-layer="svg41" />
  <path
     d="M0 0 C94.71 0 189.42 0 287 0 C287 77.22 287 154.44 287 234 C192.29 234 97.58 234 0 234 C0 156.78 0 79.56 0 0 Z "
     fill="#323232"
     transform="translate(0,0)"
     id="path1" />
  <path
     d="M0 0 C0.85094592 -0.0039821 1.70189185 -0.00796419 2.57862401 -0.01206696 C3.50858213 -0.00624128 4.43854025 -0.00041559 5.39667892 0.00558662 C6.3883163 0.00387777 7.37995367 0.00216892 8.40164065 0.00040829 C11.73361674 -0.0028932 15.06539269 0.00812806 18.39735031 0.01904488 C20.78214641 0.01960885 23.16694285 0.01929271 25.55173874 0.01815987 C31.36120808 0.01764455 37.17061157 0.0263274 42.98006585 0.03903519 C49.73975797 0.05332758 56.49944071 0.05632511 63.25914583 0.05861153 C75.31401697 0.06298896 87.36886105 0.07629936 99.4237175 0.09521675 C111.1340026 0.11357431 122.84428032 0.12770849 134.55457687 0.13623238 C135.64832249 0.13703637 135.64832249 0.13703637 136.76416397 0.1378566 C143.10682282 0.14248229 149.44948187 0.14678789 155.79214096 0.15106201 C183.10425445 0.16988189 210.41629619 0.20972262 237.728405 0.24609566 C237.728405 53.70609566 237.728405 107.16609566 237.728405 162.24609566 C233.81516115 160.28947373 232.71438704 159.3206813 230.165905 155.99609566 C229.46723312 155.09633003 228.76856125 154.19656441 228.0487175 153.26953316 C227.28301437 152.27179878 226.51731125 151.27406441 225.728405 150.24609566 C224.00491298 148.03330138 222.2730938 145.82708539 220.540905 143.62109566 C220.08199875 143.03497505 219.6230925 142.44885445 219.15028 141.84497261 C215.5417084 137.24737139 211.86361805 132.70965723 208.165905 128.18359566 C204.1416464 123.2535821 200.16766598 118.2930875 196.290905 113.24609566 C195.49297531 112.20968941 194.69504562 111.17328316 193.87293625 110.10547066 C192.54171467 108.33050856 191.24087264 106.53177858 189.99012375 104.69922066 C187.7884082 101.49051892 186.30930346 99.56180134 182.853405 97.68359566 C177.41327271 98.66281947 174.98925693 103.03745286 171.728405 107.24609566 C170.87290497 108.3226276 170.01607805 109.3981061 169.1580925 110.47265816 C166.80775104 113.4303722 164.48556052 116.40909755 162.16932297 119.39355659 C159.32729346 123.04745695 156.45920197 126.68098893 153.59266281 130.31567574 C151.55575158 132.90249383 149.53796204 135.49808212 147.55262375 138.12500191 C146.93000656 138.94871284 146.30738937 139.77242378 145.665905 140.62109566 C144.87506516 141.68457222 144.87506516 141.68457222 144.06824875 142.76953316 C143.62610031 143.25679878 143.18395187 143.74406441 142.728405 144.24609566 C142.068405 144.24609566 141.408405 144.24609566 140.728405 144.24609566 C139.49685132 142.71269059 138.34455895 141.11543377 137.228405 139.49609566 C133.42622592 134.1275016 129.33568161 129.10046611 125.0955925 124.07422066 C122.52285631 121.00052264 120.05471838 117.86405305 117.6112175 114.68750191 C115.31638547 111.71183797 112.99131295 108.76036215 110.665905 105.80859566 C106.91000172 101.03982025 103.18093116 96.25129103 99.46863937 91.44848824 C97.11477544 88.4095683 94.74790248 85.38098611 92.3768425 82.35547066 C91.31740597 80.99979358 90.26233604 79.64068649 89.21278 78.27734566 C87.87814428 76.54671912 86.52542725 74.83219596 85.165905 73.12109566 C84.05022141 71.69410347 84.05022141 71.69410347 82.91199875 70.23828316 C80.89275503 68.07730852 80.89275503 68.07730852 78.2518425 67.63672066 C74.64213843 68.5084139 73.31636032 70.32121078 70.915905 73.12109566 C70.26416306 73.87157173 70.26416306 73.87157173 69.59925461 74.63720894 C66.24400956 78.53310668 63.03037432 82.54427077 59.853405 86.58593941 C57.39016118 89.66952221 54.84908061 92.6787405 52.290905 95.68359566 C47.36237581 101.47827935 42.52812391 107.34409048 37.728405 113.24609566 C31.80144439 120.5063423 25.85003016 127.74610929 19.88856125 134.97802925 C16.59474415 138.97499074 13.31135103 142.97996445 10.040905 146.99609566 C5.85760201 152.1177096 1.58866044 157.16420292 -2.69347 162.20312691 C-4.03128365 163.78215241 -5.36713028 165.36312306 -6.67589188 166.9663105 C-7.85465003 168.40931681 -9.06074566 169.82990998 -10.271595 171.24609566 C-10.601595 171.24609566 -10.931595 171.24609566 -11.271595 171.24609566 C-11.3416555 149.94952882 -11.39456868 128.65298096 -11.42703152 107.35632229 C-11.44250476 97.46805979 -11.46360305 87.57986886 -11.49791336 77.6916523 C-11.52780168 69.07374864 -11.54716667 60.45589682 -11.55386049 51.83794278 C-11.5577737 47.27418902 -11.56697984 42.71058355 -11.58878517 38.14687729 C-11.60914135 33.85168652 -11.61543056 29.55670522 -11.61091805 25.26147079 C-11.61174364 23.68486582 -11.61771452 22.10825387 -11.62921143 20.5316906 C-11.64414236 18.3786839 -11.64054698 16.22646753 -11.63235855 14.07344246 C-11.63512393 12.86865903 -11.63788931 11.6638756 -11.64073849 10.42258358 C-11.22863257 6.87640299 -10.46879507 5.04216987 -8.271595 2.24609566 C-5.42699412 0.51242247 -3.31056539 -0.00342709 0 0 Z "
     fill="#C9C9C9"
     transform="translate(49.2715950012207,37.75390434265137)"
     id="path2" />
  <path
     d="M0 0 C0.87087185 -0.00521549 1.7417437 -0.01043099 2.6390056 -0.01580453 C3.59638472 -0.01134309 4.55376385 -0.00688164 5.54015446 -0.002285 C6.55670001 -0.00540498 7.57324556 -0.00852497 8.62059551 -0.01173949 C12.04306382 -0.01974702 15.46535619 -0.01338507 18.88782597 -0.00710678 C21.33495024 -0.00981543 23.78207369 -0.01337566 26.22919559 -0.0177269 C32.19588554 -0.02591817 38.16250586 -0.02469386 44.12919312 -0.01890162 C48.97796689 -0.01438908 53.82672656 -0.01377045 58.67550182 -0.01594925 C59.36500541 -0.01625572 60.054509 -0.01656218 60.76490663 -0.01687793 C62.16553211 -0.01751737 63.56615758 -0.0181658 64.96678305 -0.01882312 C78.10866884 -0.02452978 91.25052675 -0.01796348 104.39240796 -0.00722238 C115.67230736 0.00171145 126.95216559 0.00016312 138.23206425 -0.00905991 C151.32463495 -0.01976003 164.4171812 -0.02397833 177.50975567 -0.01783538 C178.9056009 -0.01719827 180.30144614 -0.01656953 181.69729137 -0.01594925 C182.38410702 -0.0156407 183.07092266 -0.01533215 183.7785509 -0.01501425 C188.62180498 -0.01328638 193.46504357 -0.01620442 198.30829525 -0.02090836 C204.82615139 -0.02709943 211.3439417 -0.02269898 217.86179447 -0.01111984 C220.25798825 -0.00846903 222.65418855 -0.00924549 225.05037975 -0.01364517 C228.31349952 -0.01908545 231.57636729 -0.01228477 234.83947086 -0.002285 C235.79461926 -0.00674645 236.74976766 -0.01120789 237.73385996 -0.01580453 C238.60733955 -0.01058903 239.48081915 -0.00537354 240.38076782 0 C241.13402562 0.0003247 241.88728342 0.00064941 242.66336721 0.00098395 C245.11564417 0.29514672 246.66874603 0.93256955 248.75330448 2.25168228 C251.03393276 5.6726247 250.97255455 6.93355451 250.87830448 10.93918228 C250.86025761 11.93304947 250.84221073 12.92691666 250.82361698 13.95090103 C250.78881229 15.08978775 250.78881229 15.08978775 250.75330448 16.25168228 C249.58747145 16.25222705 248.42163841 16.25277182 247.2204771 16.25333309 C219.52237822 16.26738873 191.8244132 16.3071915 164.12640015 16.3785379 C160.71443774 16.38730426 157.30247481 16.39585414 153.89051151 16.40427017 C153.21127445 16.40594923 152.53203739 16.4076283 151.83221738 16.40935824 C140.84587033 16.43600053 129.85957546 16.44512133 118.87319942 16.44772371 C107.59329851 16.45078726 96.3135465 16.47315104 85.03370321 16.51220685 C78.70082132 16.53352586 72.36819354 16.54614288 66.03527546 16.53783607 C60.07128415 16.53028932 54.10780746 16.54614521 48.14391041 16.57974243 C45.95827342 16.587968 43.77258518 16.5877348 41.58695316 16.5782795 C26.26411448 16.00332585 26.26411448 16.00332585 12.75330448 22.25168228 C7.65758891 27.61191191 6.63651133 32.33072463 6.5950861 39.50320816 C6.58529728 40.78765823 6.57550846 42.07210831 6.56542301 43.39548111 C6.55951919 44.81662332 6.55370872 46.23776591 6.54798222 47.65890884 C6.53840091 49.15701949 6.52839068 50.65512744 6.51798344 52.15323257 C6.4909557 56.21896453 6.46993459 60.28470807 6.44998145 64.35048008 C6.42810876 68.59993791 6.40072635 72.84936012 6.37392521 77.09878922 C6.32401568 85.14514428 6.27907039 93.19151914 6.23590285 101.23791289 C6.18651561 110.3986771 6.13160299 119.55940557 6.07622325 128.72013521 C5.96242991 147.56395105 5.8555851 166.40780062 5.75330448 185.25168228 C4.31468262 185.28726657 2.87580587 185.31264376 1.43689823 185.33371353 C0.23504887 185.35655411 0.23504887 185.35655411 -0.99108028 185.37985611 C-4.08949372 185.20379084 -5.86650615 184.19910994 -8.24669552 182.25168228 C-10.69930185 178.57277278 -10.50023482 176.78459083 -10.50739193 172.39477921 C-10.51121748 171.69337275 -10.51504302 170.9919663 -10.5189845 170.26930511 C-10.5293234 167.91325748 -10.52532071 165.55745314 -10.52135372 163.20138931 C-10.52569975 161.51449736 -10.53088253 159.82760739 -10.53684139 158.14072037 C-10.55025543 153.55390955 -10.55080732 148.96718102 -10.54827809 144.3803544 C-10.54720986 140.55326289 -10.55208803 136.72618812 -10.55688351 132.89910018 C-10.56798733 123.87061877 -10.5684114 114.84217895 -10.56236935 105.813694 C-10.55632975 96.49615725 -10.56863821 87.17877151 -10.58993942 77.86126053 C-10.60754771 69.86542456 -10.61355794 61.86963669 -10.61030167 53.87378204 C-10.60848721 49.09659146 -10.61114111 44.31950856 -10.62501621 39.54233551 C-10.63757715 35.04927354 -10.63566693 30.55644711 -10.62260532 26.06338882 C-10.62023608 24.414227 -10.62298666 22.76504869 -10.63122845 21.11590576 C-10.64166869 18.86451375 -10.63361781 16.61391597 -10.62091732 14.36255264 C-10.62108506 13.10267092 -10.6212528 11.84278919 -10.62142563 10.54472923 C-10.21278642 6.95369644 -9.42534346 5.10647698 -7.24669552 2.25168228 C-4.1476928 0.18568047 -3.50452776 0.00151101 0 0 Z "
     fill="#CCCCCC"
     transform="translate(21.246695518493652,10.74831771850586)"
     id="path4" />
  <path
     d="M0 0 C0.66 0 1.32 0 2 0 C3.27416992 1.42675781 3.27416992 1.42675781 4.73046875 3.453125 C5.27848145 4.20746826 5.82649414 4.96181152 6.39111328 5.73901367 C6.9839209 6.56763916 7.57672852 7.39626465 8.1875 8.25 C9.45877085 10.00192978 10.73093544 11.75321129 12.00390625 13.50390625 C12.99221436 14.86733154 12.99221436 14.86733154 14.00048828 16.25830078 C17.1666329 20.5996688 20.39461488 24.89383902 23.625 29.1875 C24.24487793 30.01419189 24.86475586 30.84088379 25.50341797 31.69262695 C28.50048995 35.68780495 31.50959541 39.67292862 34.54296875 43.640625 C35.09581543 44.36741455 35.64866211 45.0942041 36.21826172 45.84301758 C37.24768061 47.19545015 38.28155518 48.54450813 39.32080078 49.8894043 C41.79258535 53.14434146 43.70875521 56.06655488 45 60 C45.66 60 46.32 60 47 60 C48.75457396 62.21692791 50.39006763 64.43169739 52 66.75 C52.67675781 67.70132813 52.67675781 67.70132813 53.3671875 68.671875 C55.50479062 71.70752441 57.35930726 74.66490776 59 78 C43.51887217 78.02333859 28.03774565 78.04098391 12.55660439 78.05181217 C5.36878497 78.05697308 -1.81902353 78.06401189 -9.00683594 78.07543945 C-15.27019115 78.08539253 -21.53353845 78.09185492 -27.79690135 78.09408849 C-31.11468721 78.09539454 -34.43244512 78.09899419 -37.75022507 78.10573006 C-41.44987096 78.11294526 -45.14946935 78.11399073 -48.84912109 78.11352539 C-50.50744209 78.1189183 -50.50744209 78.1189183 -52.19926453 78.12442017 C-53.20329819 78.1230455 -54.20733185 78.12167084 -55.24179077 78.12025452 C-56.55534577 78.12163721 -56.55534577 78.12163721 -57.89543724 78.12304783 C-60 78 -60 78 -62 77 C-60.36833518 73.14668986 -57.7852303 70.23958843 -55.0625 67.125 C-51.03343926 62.44981957 -47.15053063 57.69446714 -43.375 52.8125 C-39.47738128 47.78691318 -35.39591927 43.02048684 -31.09375 38.33203125 C-28.38245167 35.31217098 -25.87829347 32.15553508 -23.3671875 28.96875 C-19.66936601 24.3312181 -15.87344882 19.77486334 -12.09008789 15.20703125 C-8.35150352 10.68070821 -4.70745859 6.10630308 -1.234375 1.37109375 C-0.82703125 0.91863281 -0.4196875 0.46617187 0 0 Z "
     fill="#979797"
     transform="translate(105,145)"
     id="path5" />
  <path
     d="M0 0 C4.02563459 1.3418782 5.603393 4.04143183 8.0625 7.3125 C9.04920654 8.59886567 10.03751822 9.88400152 11.02734375 11.16796875 C11.52476074 11.81427246 12.02217773 12.46057617 12.53466797 13.12646484 C14.66568786 15.85113106 16.89024838 18.48456577 19.125 21.125 C23.10444122 25.86034763 26.82240923 30.73571658 30.5 35.70703125 C34.52901004 41.07848875 38.82906785 46.23935282 43.08203125 51.43359375 C43.5817041 52.0457373 44.08137695 52.65788086 44.59619141 53.28857422 C45.84958372 54.81662293 47.11720914 56.3329713 48.38671875 57.84765625 C50 60 50 60 50 62 C50.66 62 51.32 62 52 62 C55 65.46153846 55 65.46153846 55 68 C55.66 68 56.32 68 57 68 C57 69.65 57 71.3 57 73 C48.8286713 73.27930573 40.65936714 73.49186492 32.48443031 73.62174606 C28.68727517 73.68411981 24.89340718 73.76853311 21.09814453 73.90527344 C17.42791472 74.03666571 13.76082239 74.10760195 10.08842087 74.13852692 C8.69505783 74.16052933 7.30184766 74.20350489 5.90983963 74.26876068 C-4.67559288 74.74478865 -4.67559288 74.74478865 -8.56916809 71.82212257 C-11.89559416 68.58122286 -14.4505668 64.87511667 -17 61 C-17.902287 59.80939989 -18.81149463 58.6239282 -19.734375 57.44921875 C-20.39953125 56.53785156 -21.0646875 55.62648437 -21.75 54.6875 C-25.004599 50.28829957 -28.37091784 46.0943491 -32 42 C-30.28604048 38.01381987 -27.62470039 34.79844575 -24.9375 31.4375 C-24.44580322 30.81689697 -23.95410645 30.19629395 -23.44750977 29.55688477 C-19.77627389 24.93593549 -16.03396425 20.3752374 -12.28125 15.8203125 C-8.08212118 10.62892378 -4.04505949 5.31177958 0 0 Z "
     fill="#979797"
     transform="translate(230,150)"
     id="path7" />
  <path
     d="M0 0 C7.3100788 3.99748095 13.82558332 9.6993095 17.24609375 17.3984375 C19.50664661 25.98637514 19.71305732 36.18556594 15.875 44.3125 C13.70292072 47.87960485 11.25729675 50.78442276 8.0625 53.5 C7.010625 54.5209375 7.010625 54.5209375 5.9375 55.5625 C-0.88477452 60.16011978 -8.72172518 62.67977389 -16.9375 61.5 C-26.43241964 59.4942343 -33.85611543 55.1274993 -39.9375 47.5 C-45.14772153 39.09641689 -44.98521164 29.38641538 -43.53515625 19.85546875 C-41.61258928 12.68039856 -36.59022242 6.97842232 -30.51953125 2.859375 C-21.62846225 -2.18808342 -9.78114916 -3.94373155 0 0 Z "
     fill="#313131"
     transform="translate(211.9375,59.5)"
     id="path8" />
  <path
     d="M0 0 C3.76233187 1.50999418 5.62642049 3.66392103 8.125 6.8125 C9.31222656 8.30136719 9.31222656 8.30136719 10.5234375 9.8203125 C13.37042082 13.46024003 16.17985752 17.12902081 18.98242188 20.80322266 C24.02917209 27.39375289 29.30450557 33.7984875 34.5546875 40.22705078 C43.24321998 50.88517965 51.69543398 61.73728548 60.12890625 72.59765625 C62.55804842 75.71649223 64.99658664 78.82787162 67.4375 81.9375 C67.90792725 82.53739746 68.37835449 83.13729492 68.86303711 83.75537109 C72.34027933 88.18182761 75.8700099 92.56304741 79.44140625 96.9140625 C80.91272861 98.88320069 81.93529347 100.79455705 83 103 C55.53237317 105.19605873 55.53237317 105.19605873 48.69628906 101.88378906 C45.34760419 98.92125885 43.6951742 95.11147574 41.97705078 91.05273438 C40.24350825 87.41064902 37.67866302 84.39933961 35.1875 81.25 C34.17151194 79.91208549 33.15985136 78.57087474 32.15234375 77.2265625 C31.63913574 76.54239258 31.12592773 75.85822266 30.59716797 75.15332031 C27.77056833 71.34246601 25.01414049 67.48126033 22.25 63.625 C18.3801834 58.2326049 14.43549003 52.96169677 10.23046875 47.82421875 C5.19498886 41.44829588 0.44881921 34.83948248 -4.31738281 28.26074219 C-5.44215258 26.74951642 -6.60383997 25.26510415 -7.79980469 23.80957031 C-11.96088297 18.68805849 -11.96088297 18.68805849 -12.15234375 15.3203125 C-10.67824948 12.35213624 -8.85167455 10.27039225 -6.5625 7.875 C-4.11853275 5.29373122 -1.97495631 2.96243447 0 0 Z "
     fill="#979797"
     transform="translate(126,120)"
     id="path10" />
  <path
     d="M0 0 C4.51415977 2.68948887 7.47026221 6.4694273 9.4375 11.3125 C10.26183492 19.18202292 10.53087081 26.01280453 5.4375 32.3125 C0.7357422 37.22557276 -4.14880329 39.30625786 -10.875 39.75 C-16.27284931 39.62234816 -20.27054864 37.4668257 -24.5625 34.3125 C-30.39933484 28.17634029 -31.08050707 23.1229888 -30.93359375 14.80078125 C-30.30389126 8.88157784 -28.1016499 5.74984436 -23.90625 1.72265625 C-17.16512988 -3.43315808 -7.58255598 -3.45821245 0 0 Z "
     fill="#CACACA"
     transform="translate(209.5625,70.6875)"
     id="path12" />
  <path
     d="M0 0 C2.15003677 2.15003677 3.90283521 4.1339687 5.75 6.5 C10.2978385 11.77060013 15.16565472 13.03636103 21.9375 13.6875 C23.62424306 13.80327913 25.31160805 13.91145865 27 14 C27.14695312 15.41152344 27.14695312 15.41152344 27.296875 16.8515625 C28.32086405 25.3789196 28.93390969 30.44217098 35.5 36.1875 C36.325 36.785625 37.15 37.38375 38 38 C39.32 38.99 40.64 39.98 42 41 C28.14 41 14.28 41 0 41 C0 27.47 0 13.94 0 0 Z "
     fill="#FAFAFA"
     transform="translate(0,193)"
     id="path13" />
  <path
     d="M0 0 C5.94 0 11.88 0 18 0 C18 8.91 18 17.82 18 27 C16.68 27 15.36 27 14 27 C13.98582031 26.154375 13.97164063 25.30875 13.95703125 24.4375 C13.6528373 17.20261683 13.21686051 11.35614563 8 6 C5.92001617 4.46312306 3.84394787 3.14780891 1.57421875 1.91015625 C1.05472656 1.60980469 0.53523438 1.30945313 0 1 C0 0.67 0 0.34 0 0 Z "
     fill="#F6F6F6"
     transform="translate(269,0)"
     id="path14" />
</svg>
